<?xml version="1.0" encoding="UTF-8" standalone="no"?>
<!-- Created with Inkscape (http://www.inkscape.org/) -->

<svg
   xmlns:dc="http://purl.org/dc/elements/1.1/"
   xmlns:cc="http://creativecommons.org/ns#"
   xmlns:rdf="http://www.w3.org/1999/02/22-rdf-syntax-ns#"
   xmlns:svg="http://www.w3.org/2000/svg"
   xmlns="http://www.w3.org/2000/svg"
   xmlns:sodipodi="http://sodipodi.sourceforge.net/DTD/sodipodi-0.dtd"
   xmlns:inkscape="http://www.inkscape.org/namespaces/inkscape"
   width="210mm"
   height="297mm"
   viewBox="0 0 744.09448819 1052.3622047"
   id="svg5085"
   version="1.1"
   inkscape:version="0.91pre3 r13670"
   sodipodi:docname="bras.svg">
  <defs
     id="defs5087" />
  <sodipodi:namedview
     id="base"
     pagecolor="#ffffff"
     bordercolor="#666666"
     borderopacity="1.0"
     inkscape:pageopacity="0.0"
     inkscape:pageshadow="2"
     inkscape:zoom="0.35"
     inkscape:cx="-592.04063"
     inkscape:cy="616.73776"
     inkscape:document-units="px"
     inkscape:current-layer="layer1"
     showgrid="false"
     inkscape:window-width="1920"
     inkscape:window-height="1018"
     inkscape:window-x="-8"
     inkscape:window-y="-8"
     inkscape:window-maximized="1" />
  <metadata
     id="metadata5090">
    <rdf:RDF>
      <cc:Work
         rdf:about="">
        <dc:format>image/svg+xml</dc:format>
        <dc:type
           rdf:resource="http://purl.org/dc/dcmitype/StillImage" />
        <dc:title></dc:title>
      </cc:Work>
    </rdf:RDF>
  </metadata>
  <g
     inkscape:label="Calque 1"
     inkscape:groupmode="layer"
     id="layer1">
    <path
       style="fill:#666666;stroke:#000000;stroke-width:5.09833044;stroke-opacity:1;stroke-miterlimit:4;stroke-dasharray:none"
       id="path5093"
       sodipodi:type="arc"
       sodipodi:cx="-384.66983"
       sodipodi:cy="186.50235"
       sodipodi:rx="179.77977"
       sodipodi:ry="127.49092"
       sodipodi:start="4.9283735"
       sodipodi:end="4.9282862"
       sodipodi:open="true"
       d="M -346.14138,61.973569 A 179.77977,127.49092 0 0 1 -209.06625,213.82211 179.77977,127.49092 0 0 1 -423.19062,311.03232 179.77977,127.49092 0 0 1 -560.2751,159.18803 179.77977,127.49092 0 0 1 -346.15671,61.971184"
       transform="matrix(-0.84223169,-0.53911573,-0.74908893,0.66246945,0,0)" />
    <path
       style="fill:#666666;stroke:#000000;stroke-width:5;stroke-opacity:1;stroke-miterlimit:4;stroke-dasharray:none"
       id="path5095"
       sodipodi:type="arc"
       sodipodi:cx="-588.59686"
       sodipodi:cy="182.00226"
       sodipodi:rx="201.45119"
       sodipodi:ry="118.59373"
       sodipodi:start="4.9283735"
       sodipodi:end="4.9282862"
       sodipodi:open="true"
       d="M -545.42402,66.163953 A 201.45119,118.59373 0 0 1 -391.82528,207.41545 201.45119,118.59373 0 0 1 -631.76111,297.84167 201.45119,118.59373 0 0 1 -785.37033,156.59412 201.45119,118.59373 0 0 1 -545.4412,66.161734"
       transform="matrix(-0.87055263,-0.49207531,-0.49207531,0.87055263,0,0)" />
    <path
       style="fill:#808080;stroke:#666666;stroke-width:0.71130371"
       id="path5093-1"
       sodipodi:type="arc"
       sodipodi:cx="-375.94818"
       sodipodi:cy="183.01337"
       sodipodi:rx="136.6754"
       sodipodi:ry="96.097221"
       sodipodi:start="4.9283735"
       sodipodi:end="4.9282862"
       sodipodi:open="true"
       d="M -346.65739,89.14888 A 136.6754,96.097221 0 0 1 -242.44768,203.60583 136.6754,96.097221 0 0 1 -405.23315,276.87875 136.6754,96.097221 0 0 1 -509.44997,162.425 136.6754,96.097221 0 0 1 -346.66904,89.147083"
       transform="matrix(-0.85613526,-0.5167518,-0.76800162,0.6404479,0,0)" />
    <path
       style="fill:#999999;stroke:#666666;stroke-width:0.71900558"
       id="path5095-1"
       sodipodi:type="arc"
       sodipodi:cx="-580.64166"
       sodipodi:cy="174.24358"
       sodipodi:rx="153.57567"
       sodipodi:ry="87.713997"
       sodipodi:start="4.9283735"
       sodipodi:end="4.9282862"
       sodipodi:open="true"
       d="m -547.72899,88.567537 a 153.57567,87.713997 0 0 1 117.09552,104.472083 153.57567,87.713997 0 0 1 -182.91432,66.88082 153.57567,87.713997 0 0 1 -117.1035,-104.46917 153.57567,87.713997 0 0 1 182.90921,-66.885374"
       transform="matrix(-0.88247572,-0.47035796,-0.51414396,0.8577039,0,0)" />
    <path
       style="fill:#666666;stroke:#000000;stroke-width:5.00021408;stroke-opacity:1;stroke-miterlimit:4;stroke-dasharray:none"
       id="path5124"
       sodipodi:type="arc"
       sodipodi:cx="164.59987"
       sodipodi:cy="803.91852"
       sodipodi:rx="123.20964"
       sodipodi:ry="77.757225"
       sodipodi:start="4.9283735"
       sodipodi:end="4.9282862"
       sodipodi:open="true"
       d="m 191.00483,727.96791 a 123.20964,77.757225 0 0 1 93.94259,92.61304 123.20964,77.757225 0 0 1 -146.74725,59.2889 A 123.20964,77.757225 0 0 1 44.251168,787.2594 123.20964,77.757225 0 0 1 190.99432,727.96646"
       transform="matrix(0.83353209,-0.55247105,0.56333143,0.82623102,0,0)" />
    <path
       style="fill:#000000;stroke:#666666;stroke-width:0.96315485"
       d="m 537.47724,574.92853 74.50462,-45.98027 c 13.26882,-8.1888 34.34954,-27.45706 60.47453,-34.72977 14.98762,-4.17227 -14.68122,20.36729 -28.06018,28.3708 l -58.05555,34.72977 c -12.84441,7.68375 -112.72452,88.60105 -103.53239,72.88362 7.91235,-13.52916 39.07017,-45.6474 54.66897,-55.27415 z"
       id="rect5162"
       inkscape:connector-curvature="0"
       sodipodi:nodetypes="sssssss" />
    <path
       style="fill:#000000;stroke:#666666"
       d="m 534.82142,591.64793 c 14.14679,0 14.33753,1.88085 18.03572,15.53571 l 9.28571,34.28571 c 3.69819,13.65485 -2.10321,31.60714 -10.17857,21.96429 -9.08285,-10.84591 0.16328,-20.73863 -4.46428,-34.10714 l -3.21429,-9.28572 c -4.62756,-13.36852 -23.61108,-28.39285 -9.46429,-28.39285 z"
       id="rect5165"
       inkscape:connector-curvature="0"
       sodipodi:nodetypes="sssssss" />
    <path
       style="fill:#000000;stroke:#666666;stroke-width:1.15823603"
       d="m 574.62978,569.11344 c 16.48471,0 16.70697,2.16533 21.01633,17.88553 l 10.82027,39.47154 c 4.30936,15.72018 -2.45078,36.38782 -11.86069,25.28645 -10.58389,-12.48638 0.19027,-23.87541 -5.20205,-39.26595 l -3.74549,-10.69021 c -5.39231,-15.39056 -27.51307,-32.68736 -11.02837,-32.68736 z"
       id="rect5165-9"
       inkscape:connector-curvature="0"
       sodipodi:nodetypes="sssssss" />
    <path
       style="fill:#000000;stroke:#666666;stroke-width:1.25325513"
       d="m 601.14317,549.16101 c 18.54873,0 18.79882,2.25307 23.64774,18.61032 l 12.17506,41.07108 c 4.84893,16.35723 -2.75764,37.86239 -13.34574,26.31116 -11.90908,-12.99239 0.21409,-24.84294 -5.85339,-40.85717 l -4.21445,-11.12342 c -6.06748,-16.01424 -30.95794,-34.01197 -12.40922,-34.01197 z"
       id="rect5165-3"
       inkscape:connector-curvature="0"
       sodipodi:nodetypes="sssssss" />
    <path
       style="fill:#000000;stroke:#666666;stroke-width:1.14701009"
       d="m 638.00432,529.10787 c 16.94032,0 17.16872,2.06645 21.59718,17.06876 l 11.11934,37.669 c 4.42846,15.0023 -2.51853,34.72611 -12.18851,24.13171 -10.87641,-11.91618 0.19553,-22.7851 -5.34582,-37.47281 l -3.84901,-10.20202 c -5.54135,-14.68772 -28.27349,-31.19464 -11.33318,-31.19464 z"
       id="rect5165-1"
       inkscape:connector-curvature="0"
       sodipodi:nodetypes="sssssss" />
  </g>
</svg>
