<?xml version="1.0" encoding="UTF-8" standalone="no"?>
<!-- Created with Inkscape (http://www.inkscape.org/) -->

<svg
   xmlns:dc="http://purl.org/dc/elements/1.1/"
   xmlns:cc="http://creativecommons.org/ns#"
   xmlns:rdf="http://www.w3.org/1999/02/22-rdf-syntax-ns#"
   xmlns:svg="http://www.w3.org/2000/svg"
   xmlns="http://www.w3.org/2000/svg"
   xmlns:sodipodi="http://sodipodi.sourceforge.net/DTD/sodipodi-0.dtd"
   xmlns:inkscape="http://www.inkscape.org/namespaces/inkscape"
   width="210mm"
   height="297mm"
   viewBox="0 0 744.09448819 1052.3622047"
   id="svg4150"
   version="1.1"
   inkscape:version="0.91pre3 r13670"
   sodipodi:docname="tete.svg"
   inkscape:export-filename="C:\Users\thomas\Documents\Matoba\Assets\Chevalier\PNG\tete.png"
   inkscape:export-xdpi="90"
   inkscape:export-ydpi="90">
  <defs
     id="defs4152" />
  <sodipodi:namedview
     id="base"
     pagecolor="#ffffff"
     bordercolor="#666666"
     borderopacity="1.0"
     inkscape:pageopacity="0.0"
     inkscape:pageshadow="2"
     inkscape:zoom="1.8926751"
     inkscape:cx="262.14707"
     inkscape:cy="544.2857"
     inkscape:document-units="px"
     inkscape:current-layer="layer1"
     showgrid="false"
     inkscape:window-width="1920"
     inkscape:window-height="1018"
     inkscape:window-x="-8"
     inkscape:window-y="-8"
     inkscape:window-maximized="1" />
  <metadata
     id="metadata4155">
    <rdf:RDF>
      <cc:Work
         rdf:about="">
        <dc:format>image/svg+xml</dc:format>
        <dc:type
           rdf:resource="http://purl.org/dc/dcmitype/StillImage" />
        <dc:title></dc:title>
      </cc:Work>
    </rdf:RDF>
  </metadata>
  <g
     inkscape:groupmode="layer"
     id="layer2"
     inkscape:label="Calque 2">
    <ellipse
       style="fill:#000000"
       id="path4158-7"
       cx="358.22311"
       cy="507.89471"
       rx="231.89803"
       ry="227.19165" />
  </g>
  <g
     inkscape:label="Calque 1"
     inkscape:groupmode="layer"
     id="layer1">
    <ellipse
       style="fill:#deaa87"
       id="path4158"
       cx="358.57144"
       cy="508.07651"
       rx="227.14285"
       ry="224.28572"
       inkscape:export-filename="C:\Users\thomas\Documents\Matoba\Assets\Chevalier\PNG\tete.png"
       inkscape:export-xdpi="90"
       inkscape:export-ydpi="90" />
    <ellipse
       style="fill:#ffffff"
       id="path4200"
       cx="460.39203"
       cy="468.21277"
       rx="64.285713"
       ry="65.714287" />
    <path
       style="fill:#000000"
       d="m 458.96349,442.4979 a 25.713961,24.285466 0 0 0 -25.71512,24.28599 25.713961,24.285466 0 0 0 25.71512,24.28599 25.713961,24.285466 0 0 0 25.71513,-24.28599 25.713961,24.285466 0 0 0 -25.71513,-24.28599 z"
       id="path4202"
       inkscape:connector-curvature="0" />
    <circle
       style="fill:#ffffff"
       id="path4207"
       cx="466.10635"
       cy="466.78421"
       r="7.1428571" />
    <ellipse
       style="fill:#ffffff"
       id="path4200-3"
       cx="296.10632"
       cy="451.06995"
       rx="64.285713"
       ry="65.714287" />
    <path
       style="fill:#000000"
       d="m 294.6778,425.35505 a 25.713961,24.285466 0 0 0 -25.71512,24.28599 25.713961,24.285466 0 0 0 25.71512,24.28599 25.713961,24.285466 0 0 0 25.71513,-24.28599 25.713961,24.285466 0 0 0 -25.71513,-24.28599 z"
       id="path4202-4"
       inkscape:connector-curvature="0" />
    <circle
       style="fill:#ffffff"
       id="path4207-0"
       cx="301.82068"
       cy="449.64139"
       r="7.1428571" />
    <path
       style="fill:#ffffff"
       id="path4234"
       sodipodi:type="arc"
       sodipodi:cx="355.71429"
       sodipodi:cy="629.50507"
       sodipodi:rx="41.42857"
       sodipodi:ry="31.428572"
       sodipodi:start="0"
       sodipodi:end="6.2632087"
       d="m 397.14286,629.50507 a 41.42857,31.428572 0 0 1 -41.22167,31.42818 41.42857,31.428572 0 0 1 -41.6334,-31.11427 41.42857,31.428572 0 0 1 40.80583,-31.73896 41.42857,31.428572 0 0 1 42.04098,30.79725"
       sodipodi:open="true" />
    <path
       style="fill:#000000"
       d="m 394.05508,587.41181 c -45.82837,-20.98921 -105.82613,24.20795 -106.63052,19.86408 -0.18546,-6.84735 40.57202,-46.76776 85.88059,-46.8098 45.30858,-0.042 73.3076,50.90557 73.67848,57.75275"
       id="path4256"
       inkscape:connector-curvature="0"
       sodipodi:nodetypes="ccsc" />
    <path
       style="fill:#000000"
       d="m 417.92699,674.82303 c 4e-5,0.5837 -35.61817,11.39074 -62.6098,11.39074 -26.99163,0 -62.60983,-4.93553 -62.60979,-5.51923 8e-5,-0.58369 35.61824,3.40548 62.60979,3.40548 26.99155,0 62.60972,-9.86068 62.6098,-9.27699 z"
       id="path4283"
       inkscape:connector-curvature="0"
       sodipodi:nodetypes="cscsc" />
  </g>
</svg>
